<svg xmlns="http://www.w3.org/2000/svg" width="820" height="920" viewBox="0 0 820 920">
  <style>
    text { font-family: 'SF Mono', 'Menlo', 'Consolas', monospace; font-size: 13px; }
    .dim { fill: #6b7280; }
    .text { fill: #e5e7eb; }
    .accent { fill: #60a5fa; }
    .green { fill: #34d399; }
    .yellow { fill: #fbbf24; }
    .muted { fill: #9ca3af; }
    .cyan { fill: #22d3ee; }
    .bold { font-weight: bold; }
    .title { font-size: 13px; font-weight: bold; }
    .select-bg { fill: #283457; }
    .section { fill: #565f89; font-size: 11px; text-transform: uppercase; letter-spacing: 1px; }
  </style>

  <!-- Window chrome -->
  <rect width="820" height="920" rx="10" fill="#1a1b26"/>
  <rect width="820" height="36" rx="10" fill="#24283b"/>
  <rect y="26" width="820" height="10" fill="#24283b"/>
  <circle cx="20" cy="18" r="6" fill="#f7768e"/>
  <circle cx="40" cy="18" r="6" fill="#e0af68"/>
  <circle cx="60" cy="18" r="6" fill="#9ece6a"/>
  <text x="410" y="22" text-anchor="middle" class="muted title">pi — ~/monorepo/apps/web</text>

  <!-- Widget bar -->
  <rect x="0" y="36" width="820" height="28" fill="#1e2030"/>
  <text x="14" y="55" class="text">📂</text>
  <text x="34" y="55" class="muted"> 2 external dirs</text>
  <text x="172" y="55" class="dim"> │ </text>
  <text x="190" y="55" class="text">shared-lib</text>
  <text x="280" y="55" class="dim">, </text>
  <text x="290" y="55" class="text">design-system</text>
  <text x="415" y="55" class="dim">  (/dirs to manage)</text>

  <!-- ═══════════════════════════════════════════════════════════════ -->
  <!-- Scene 1: /add-dir with smart suggestions                      -->
  <!-- ═══════════════════════════════════════════════════════════════ -->
  <text x="14" y="84" class="section">▎ smart suggestions</text>

  <text x="14" y="106" class="accent bold">❯</text>
  <text x="28" y="106" class="cyan">/add-dir</text>

  <text x="14" y="128" class="muted">Add directory:</text>

  <!-- Highlighted suggestion -->
  <rect x="10" y="136" width="790" height="20" rx="3" class="select-bg"/>
  <text x="18" y="151" class="accent bold">❯ </text>
  <text x="34" y="151" class="green">packages/ui</text>
  <text x="130" y="151" class="dim"> — </text>
  <text x="148" y="151" class="muted">/Users/me/monorepo/packages/ui</text>
  <text x="430" y="151" class="dim">(</text>
  <text x="438" y="151" class="yellow">workspace member, has AGENTS.md, has skills</text>
  <text x="758" y="151" class="dim">)</text>

  <text x="34" y="171" class="text">packages/shared</text>
  <text x="163" y="171" class="dim"> — </text>
  <text x="181" y="171" class="dim">(</text>
  <text x="189" y="171" class="yellow">pnpm workspace, has CLAUDE.md</text>
  <text x="463" y="171" class="dim">)</text>

  <text x="34" y="191" class="text">../auth-service</text>
  <text x="163" y="191" class="dim"> — </text>
  <text x="181" y="191" class="dim">(</text>
  <text x="189" y="191" class="yellow">Docker Compose service</text>
  <text x="380" y="191" class="dim">)</text>

  <text x="34" y="211" class="text">vendor/analytics</text>
  <text x="170" y="211" class="dim"> — </text>
  <text x="188" y="211" class="dim">(</text>
  <text x="196" y="211" class="yellow">git submodule</text>
  <text x="312" y="211" class="dim">)</text>

  <text x="34" y="231" class="muted">📝 Enter a custom path...</text>

  <!-- ═══════════════════════════════════════════════════════════════ -->
  <!-- Scene 2: Result — added with skills + context                 -->
  <!-- ═══════════════════════════════════════════════════════════════ -->
  <text x="14" y="265" class="section">▎ context detection</text>

  <text x="14" y="287" class="green">✓</text>
  <text x="28" y="287" class="text"> Added </text>
  <text x="78" y="287" class="accent">packages/ui</text>
  <text x="172" y="287" class="dim"> (/Users/me/monorepo/packages/ui)</text>
  <text x="14" y="305" class="text">  Found: </text>
  <text x="82" y="305" class="yellow">AGENTS.md</text>
  <text x="166" y="305" class="dim">, </text>
  <text x="176" y="305" class="yellow">CLAUDE.md</text>
  <text x="260" y="305" class="dim">, </text>
  <text x="270" y="305" class="yellow">3 skill(s)</text>
  <text x="14" y="323" class="muted">  Reloading to register skills as /skill:name commands...</text>

  <!-- ═══════════════════════════════════════════════════════════════ -->
  <!-- Scene 3: /dirs — listing with full context                     -->
  <!-- ═══════════════════════════════════════════════════════════════ -->
  <text x="14" y="357" class="section">▎ directory management</text>

  <text x="14" y="379" class="accent bold">❯</text>
  <text x="28" y="379" class="cyan">/dirs</text>

  <text x="14" y="401" class="muted">External directories (3):</text>

  <text x="14" y="425" class="text">  📂 </text>
  <text x="48" y="425" class="accent bold">packages/ui</text>
  <text x="14" y="443" class="dim">     /Users/me/monorepo/packages/ui</text>
  <text x="14" y="461" class="text">     Found: </text>
  <text x="82" y="461" class="yellow">AGENTS.md</text>
  <text x="166" y="461" class="dim">, </text>
  <text x="176" y="461" class="yellow">CLAUDE.md</text>
  <text x="260" y="461" class="dim">, </text>
  <text x="270" y="461" class="yellow">3 skill(s)</text>
  <text x="14" y="479" class="text">     Skills: </text>
  <text x="88" y="479" class="cyan">/skill:design-tokens</text>
  <text x="260" y="479" class="dim">, </text>
  <text x="270" y="479" class="cyan">/skill:a11y-check</text>
  <text x="415" y="479" class="dim">, </text>
  <text x="425" y="479" class="cyan">/skill:component-gen</text>

  <text x="14" y="505" class="text">  📂 </text>
  <text x="48" y="505" class="accent bold">shared-lib</text>
  <text x="14" y="523" class="dim">     /Users/me/shared-lib</text>
  <text x="14" y="541" class="text">     Found: </text>
  <text x="82" y="541" class="yellow">AGENTS.md</text>

  <text x="14" y="567" class="text">  📂 </text>
  <text x="48" y="567" class="accent bold">design-system</text>
  <text x="14" y="585" class="dim">     /Users/me/design-system</text>
  <text x="14" y="603" class="text">     Found: </text>
  <text x="82" y="603" class="yellow">1 extension(s)</text>
  <text x="14" y="621" class="muted">     ⚡ Extensions found — add to settings.json to enable</text>

  <!-- ═══════════════════════════════════════════════════════════════ -->
  <!-- Scene 4: Agent using add_directory tool                        -->
  <!-- ═══════════════════════════════════════════════════════════════ -->
  <text x="14" y="655" class="section">▎ llm tools</text>

  <text x="14" y="677" class="accent bold">❯</text>
  <text x="28" y="677" class="text"> I need the auth service's API types</text>

  <text x="14" y="705" class="dim">  ┌ </text>
  <text x="40" y="705" class="accent bold">add_directory </text>
  <text x="160" y="705" class="green">/Users/me/monorepo/packages/auth</text>
  <text x="420" y="705" class="dim"> — need auth API types</text>
  <text x="14" y="723" class="dim">  └ </text>
  <text x="40" y="723" class="green">✓ Added auth</text>
  <text x="140" y="723" class="dim"> │ </text>
  <text x="154" y="723" class="accent">AGENTS.md</text>
  <text x="240" y="723" class="dim">, </text>
  <text x="250" y="723" class="yellow">2 skills</text>

  <!-- Scene 4b: Agent using search_external_files -->
  <text x="14" y="755" class="dim">  ┌ </text>
  <text x="40" y="755" class="accent bold">search_external_files </text>
  <text x="220" y="755" class="green">"*.types.ts"</text>
  <text x="320" y="755" class="dim"> across 4 dir(s)</text>
  <text x="14" y="773" class="dim">  └ </text>
  <text x="40" y="773" class="green">✓ 6 file(s)</text>
  <text x="128" y="773" class="dim"> matching "*.types.ts" in 3 dir(s)</text>

  <!-- ═══════════════════════════════════════════════════════════════ -->
  <!-- Scene 5: /suggest-dirs with ecosystem diversity                -->
  <!-- ═══════════════════════════════════════════════════════════════ -->
  <text x="14" y="807" class="section">▎ 16 ecosystems supported</text>

  <text x="14" y="829" class="accent bold">❯</text>
  <text x="28" y="829" class="cyan">/suggest-dirs</text>

  <text x="14" y="851" class="text">  📂 </text>
  <text x="48" y="851" class="accent">packages/ui</text>
  <text x="152" y="851" class="dim">(</text>
  <text x="160" y="851" class="green">90%</text>
  <text x="188" y="851" class="dim">)</text>
  <text x="200" y="851" class="yellow">workspace member</text>
  <text x="338" y="851" class="dim">, </text>
  <text x="346" y="851" class="yellow">has AGENTS.md</text>
  <text x="465" y="851" class="dim">, </text>
  <text x="473" y="851" class="yellow">has skills</text>

  <text x="14" y="871" class="text">  📂 </text>
  <text x="48" y="871" class="accent">../auth-svc</text>
  <text x="145" y="871" class="dim">(</text>
  <text x="153" y="871" class="green">60%</text>
  <text x="181" y="871" class="dim">)</text>
  <text x="200" y="871" class="yellow">Gemfile path dep</text>
  <text x="338" y="871" class="dim">, </text>
  <text x="346" y="871" class="yellow">Docker Compose</text>
  <text x="465" y="871" class="dim">, </text>
  <text x="473" y="871" class="yellow">TS project ref</text>

  <!-- Cursor -->
  <text x="14" y="903" class="accent bold">❯</text>
  <rect x="28" y="892" width="8" height="16" fill="#60a5fa" opacity="0.7">
    <animate attributeName="opacity" values="0.7;0;0.7" dur="1.2s" repeatCount="indefinite"/>
  </rect>
</svg>
